<svg width="16" height="16" fill="none" xmlns="http://www.w3.org/2000/svg"><path d="M7.99334 1.33334c-3.68 0-6.66 2.98667-6.66 6.66667 0 3.67999 2.98 6.66669 6.66 6.66669 3.68666 0 6.67336-2.9867 6.67336-6.66669 0-3.68-2.9867-6.66667-6.67336-6.66667ZM8 13.3333c-2.94666 0-5.33333-2.3866-5.33333-5.33329 0-2.94667 2.38667-5.33333 5.33333-5.33333 2.9467 0 5.3333 2.38666 5.3333 5.33333 0 2.94669-2.3866 5.33329-5.3333 5.33329Zm.33334-8.66662h-1v4l3.49996 2.10002.5-.82002-2.99996-1.78v-3.5Z" fill="#888"/></svg>